<svg xmlns="http://www.w3.org/2000/svg" viewBox="0 0 80 72">
  <!-- Personnage gauche (grand) -->
  <path d="M24 69 C21 47 17 22 27 4 C30 24 29 52 28 69Z" fill="#6abf24"/>
  <path d="M24 69 C17 54 9 32 14 13 C20 33 22 57 24 69Z" fill="#57a01d"/>
  <path d="M28 69 C35 54 40 33 35 15 C32 35 30 57 28 69Z" fill="#57a01d"/>
  <circle cx="22" cy="57" r="2.4" fill="white"/>
  <circle cx="30" cy="57" r="2.4" fill="white"/>

  <!-- Personnage droit (petit) -->
  <path d="M57 69 C55 53 52 35 60 21 C63 37 62 57 61 69Z" fill="#6abf24"/>
  <path d="M57 69 C51 56 45 41 50 28 C55 43 56 61 57 69Z" fill="#57a01d"/>
  <path d="M61 69 C67 56 71 41 68 29 C65 43 63 61 61 69Z" fill="#57a01d"/>
  <circle cx="56" cy="60" r="2" fill="white"/>
  <circle cx="63" cy="60" r="2" fill="white"/>
</svg>
